<svg xmlns="http://www.w3.org/2000/svg" viewBox="0 0 1200 675" width="1200" height="675">
  <defs>
    <linearGradient id="bgGrad" x1="0%" y1="0%" x2="100%" y2="100%">
      <stop offset="0%" stop-color="#0a192f"/>
      <stop offset="100%" stop-color="#030a16"/>
    </linearGradient>
    
    <radialGradient id="goldGlow" cx="50%" cy="50%" r="50%">
      <stop offset="0%" stop-color="#ffd880" stop-opacity="0.35"/>
      <stop offset="100%" stop-color="#000000" stop-opacity="0"/>
    </radialGradient>

    <radialGradient id="fireGlow" cx="50%" cy="50%" r="50%">
      <stop offset="0%" stop-color="#ff9900" stop-opacity="0.4"/>
      <stop offset="100%" stop-color="#000000" stop-opacity="0"/>
    </radialGradient>

    <radialGradient id="purpleGlow" cx="50%" cy="50%" r="50%">
      <stop offset="0%" stop-color="#c084fc" stop-opacity="0.35"/>
      <stop offset="100%" stop-color="#000000" stop-opacity="0"/>
    </radialGradient>

    <radialGradient id="blueGlow" cx="50%" cy="50%" r="50%">
      <stop offset="0%" stop-color="#38bdf8" stop-opacity="0.35"/>
      <stop offset="100%" stop-color="#000000" stop-opacity="0"/>
    </radialGradient>

    <radialGradient id="limeGlow" cx="50%" cy="50%" r="50%">
      <stop offset="0%" stop-color="#a3e635" stop-opacity="0.35"/>
      <stop offset="100%" stop-color="#000000" stop-opacity="0"/>
    </radialGradient>

    <radialGradient id="redGlow" cx="50%" cy="50%" r="50%">
      <stop offset="0%" stop-color="#f87171" stop-opacity="0.4"/>
      <stop offset="100%" stop-color="#000000" stop-opacity="0"/>
    </radialGradient>

    <linearGradient id="goldGrad" x1="0%" y1="0%" x2="100%" y2="100%">
      <stop offset="0%" stop-color="#8a6a2a"/>
      <stop offset="50%" stop-color="#f0cf8e"/>
      <stop offset="100%" stop-color="#d9a441"/>
    </linearGradient>

    <linearGradient id="flameGrad" x1="0%" y1="100%" x2="0%" y2="0%">
      <stop offset="0%" stop-color="#dc2626"/>
      <stop offset="50%" stop-color="#f97316"/>
      <stop offset="100%" stop-color="#fef08a"/>
    </linearGradient>

    <pattern id="gridPattern" width="40" height="40" patternUnits="userSpaceOnUse">
      <path d="M 40 0 L 0 0 0 40" fill="none" stroke="#38bdf8" stroke-width="0.5" stroke-opacity="0.1"/>
    </pattern>
  </defs>

  <!-- Background -->
  <rect width="1200" height="675" fill="url(#bgGrad)"/>
  <rect width="1200" height="675" fill="url(#gridPattern)"/>

  <!-- Concentric Constellation Radar Rings (matching user's reference screenshot) -->
  <g stroke="#38bdf8" stroke-width="1" fill="none" opacity="0.2">
    <circle cx="600" cy="310" r="270"/>
    <circle cx="600" cy="310" r="210" stroke-dasharray="6 6"/>
    <circle cx="600" cy="310" r="150"/>
  </g>

  <!-- Scene Specific Center Illustration -->
  
      <!-- Leaping over Ocean Waves under Starry Sky -->
      <g transform="translate(600, 310)">
        <circle cx="0" cy="-20" r="210" fill="url(#blueGlow)" />

        <!-- Ocean Waves at Bottom -->
        <path d="M -300 120 C -200 80 -100 160 0 120 C 100 80 200 160 300 120 L 300 180 L -300 180 Z" fill="#032b45" />
        <path d="M -300 140 C -150 100 -50 170 50 130 C 150 90 250 170 350 140 L 350 180 L -300 180 Z" fill="#075985" opacity="0.8" />

        <!-- Trajectory Arc -->
        <path d="M -220 120 Q 0 -220 220 60" fill="none" stroke="#38bdf8" stroke-width="3" stroke-dasharray="8 6" filter="drop-shadow(0 0 10px #38bdf8)" />

        <!-- Hanuman Leaping Sun/Star symbol -->
        <circle cx="150" cy="-60" r="25" fill="#fcd34d" filter="drop-shadow(0 0 20px #fcd34d)" />
        <!-- Flying aura rays -->
        <path d="M -150 60 L 120 -50" stroke="#bae6fd" stroke-width="6" opacity="0.6" stroke-linecap="round" />
        <path d="M -180 80 L 90 -30" stroke="#bae6fd" stroke-width="3" opacity="0.4" stroke-linecap="round" />
      </g>
    

  <!-- Decorative Outer Frame -->
  <rect x="25" y="25" width="1150" height="625" fill="none" stroke="url(#goldGrad)" stroke-width="2" stroke-opacity="0.5"/>
  <rect x="35" y="35" width="1130" height="605" fill="none" stroke="url(#goldGrad)" stroke-width="1" stroke-opacity="0.25"/>

  <!-- Gold Corner Ornaments -->
  <path d="M 25 65 L 25 25 L 65 25" fill="none" stroke="url(#goldGrad)" stroke-width="4"/>
  <path d="M 1175 65 L 1175 25 L 1135 25" fill="none" stroke="url(#goldGrad)" stroke-width="4"/>
  <path d="M 25 610 L 25 650 L 65 650" fill="none" stroke="url(#goldGrad)" stroke-width="4"/>
  <path d="M 1175 610 L 1175 650 L 1135 650" fill="none" stroke="url(#goldGrad)" stroke-width="4"/>

  <!-- Header Badge Text -->
  <text x="600" y="560" text-anchor="middle" font-family="'Georgia', serif" font-size="18" fill="#38bdf8" letter-spacing="5" opacity="0.95">АКТ III · ПРЫЖОК ХАНУМАНА ЧЕРЕЗ ОКЕАН</text>

  <!-- Main Title Text -->
  <text x="600" y="608" text-anchor="middle" font-family="'Georgia', serif" font-size="30" font-weight="bold" fill="#ffffff" letter-spacing="2">Преодоление Стихии и Небесный Полет</text>
</svg>